<svg width="16" height="14" viewBox="0 0 16 14" fill="none" xmlns="http://www.w3.org/2000/svg">
<path d="M8.41577 1.62421L8.41603 1.62404L8.42381 1.61899C8.43187 1.61379 8.44526 1.60524 8.46361 1.59382C8.50035 1.57096 8.55674 1.53675 8.62992 1.49493C8.77679 1.41101 8.9884 1.29812 9.2421 1.18536C9.76262 0.954017 10.4012 0.75 11 0.75C12.3296 0.75 13.3793 1.18991 14.0947 1.90533C14.8101 2.62075 15.25 3.67044 15.25 5C15.25 5.6506 14.9125 6.49787 14.2666 7.46679C13.6343 8.41527 12.7679 9.38959 11.8537 10.2733C10.9416 11.155 10.001 11.9281 9.23538 12.476C8.85151 12.7508 8.52253 12.9611 8.27062 13.099C8.15424 13.1628 8.06435 13.2055 8 13.2316C7.93565 13.2055 7.84576 13.1628 7.72938 13.099C7.47747 12.9611 7.14849 12.7508 6.76462 12.476C5.99899 11.9281 5.05845 11.155 4.14627 10.2733C3.23213 9.38959 2.36574 8.41527 1.73341 7.46679C1.08747 6.49787 0.75 5.6506 0.75 5C0.75 3.67044 1.18991 2.62075 1.90533 1.90533C2.62075 1.18991 3.67044 0.75 5 0.75C5.59883 0.75 6.23738 0.954017 6.7579 1.18536C7.0116 1.29812 7.22321 1.41101 7.37008 1.49493C7.44326 1.53675 7.49965 1.57096 7.53639 1.59382C7.55474 1.60524 7.56813 1.61379 7.57619 1.61899L7.58423 1.62421C7.58424 1.62422 7.58424 1.62421 7.58424 1.62421C7.5844 1.62432 7.58435 1.62429 7.58447 1.62437C7.58466 1.62449 7.58475 1.62456 7.58483 1.62461L7.58512 1.6248L7.58516 1.62482L8 1.90139L8.41484 1.62482L8.41517 1.62461L8.41553 1.62437L8.41577 1.62421Z" stroke="#94A3B8" stroke-width="1.5"/>
</svg>
